<?xml version="1.0" encoding="utf-8"?>
<!-- Generator: Adobe Illustrator 16.0.0, SVG Export Plug-In . SVG Version: 6.00 Build 0)  -->
<!DOCTYPE svg PUBLIC "-//W3C//DTD SVG 1.1//EN" "http://www.w3.org/Graphics/SVG/1.1/DTD/svg11.dtd">
<svg version="1.1" id="Layer_1" xmlns="http://www.w3.org/2000/svg" xmlns:xlink="http://www.w3.org/1999/xlink" x="0px" y="0px"
	 width="704.556px" height="317.204px" viewBox="0 0 704.556 317.204" enable-background="new 0 0 704.556 317.204"
	 xml:space="preserve">
<g>
	<path fill="#03AA4B" d="M16.244,48.699c0-8.535-0.388-13.19-1.164-31.811h36.854l0.776,32.199
		c18.233-30.647,50.432-35.302,66.337-35.302c41.897,0,81.855,28.708,81.855,100.865c0,72.544-42.285,104.355-88.838,104.355
		c-28.319,0-49.269-12.026-59.743-29.096v96.597H16.244V48.699z M105.858,192.237c9.311,0,28.708-1.94,41.122-19.01
		c13.966-19.009,15.906-46.94,15.906-60.906c0-34.915-10.475-71.381-53.536-71.381c-58.19,0-58.19,61.683-58.19,79.14
		C51.159,143.744,54.65,192.237,105.858,192.237z"/>
	<path fill="#03AA4B" d="M239.708,94.082h206.138v26.836H239.708V94.082z M239.792,16.852h206.136v26.834H239.792V16.852z
		 M239.792,171.5h206.136v26.834H239.792V171.5z"/>
	<path fill="#03AA4B" d="M497.676,48.699c0-8.535-0.389-13.19-1.164-31.811h36.854l0.777,32.199
		c18.232-30.647,50.432-35.302,66.338-35.302c41.896,0,81.854,28.708,81.854,100.865c0,72.544-42.285,104.355-88.838,104.355
		c-28.318,0-49.268-12.026-59.742-29.096v96.597h-36.078V48.699z M587.289,192.237c9.311,0,28.709-1.94,41.123-19.01
		c13.965-19.009,15.904-46.94,15.904-60.906c0-34.915-10.475-71.381-53.535-71.381c-58.191,0-58.191,61.683-58.191,79.14
		C532.59,143.744,536.082,192.237,587.289,192.237z"/>
</g>
</svg>
